<?xml version="1.0" encoding="utf-8"?>
<!-- Generator: Adobe Illustrator 16.0.3, SVG Export Plug-In . SVG Version: 6.00 Build 0)  -->
<!DOCTYPE svg PUBLIC "-//W3C//DTD SVG 1.1//EN" "http://www.w3.org/Graphics/SVG/1.1/DTD/svg11.dtd">
<svg version="1.1" id="Orthodox" xmlns="http://www.w3.org/2000/svg" xmlns:xlink="http://www.w3.org/1999/xlink" x="0px" y="0px"
	 width="808px" height="944px" viewBox="0 0 808 944" enable-background="new 0 0 808 944" xml:space="preserve">
<path opacity="0.1" fill="#1D1D1B" d="M688.11,594.866c0-52.061-23.318-68.113-43.325-72.305v-50.929
	c0-3.769-1.639-7.334-4.478-9.801c-2.822-2.45-6.506-3.531-10.341-3.042l-37.361,5.339v-43.612
	c9.767-14.869,15.495-32.629,15.495-51.707c0-19.179-5.779-37.005-15.613-51.942c-0.913-25.955-7.841-100.676-56.641-150.726
	c-30.026-30.787-70.175-46.4-119.381-46.4c-49.171,0-89.32,15.613-119.33,46.366c-49.003,50.253-55.83,125.346-56.691,150.861
	c-9.818,14.904-15.562,32.696-15.562,51.841c0,19.061,5.71,36.769,15.444,51.639v43.95l-39.27-5.61
	c-3.717-0.489-7.485,0.575-10.325,3.042c-2.855,2.467-4.478,6.032-4.478,9.801v50.929c-20.007,4.191-43.325,20.244-43.325,72.305
	c0,52.045,23.318,68.098,43.325,72.288V707.1c0,6.455,4.748,11.93,11.152,12.842l216.289,30.906
	c0.608,0.085,1.216,0.135,1.824,0.135s1.217-0.05,1.824-0.135l216.306-30.906c6.388-0.912,11.136-6.387,11.136-12.842v-39.945
	C664.792,662.964,688.11,646.911,688.11,594.866z M519.98,474.505c2.112-4.106,3.903-8.094,5.373-11.947
	c15.157-1.909,29.232-7.35,41.298-15.579v20.852L519.98,474.505z M415.52,489.425l-68.012-9.716
	c-5.07-6.1-8.972-12.301-11.744-17.844c44.39-7.756,78.27-46.485,78.27-93.055c0-0.844-0.103-1.655-0.136-2.484h5.171
	c-0.017,0.829-0.118,1.64-0.118,2.484c0,46.587,33.913,85.316,78.319,93.055c-2.72,5.441-6.421,11.507-11.32,17.506L415.52,489.425z
	 M250.836,368.811c0-37.851,30.788-68.621,68.605-68.621c37.85,0,68.637,30.77,68.637,68.621c0,37.817-30.788,68.604-68.637,68.604
	C281.624,437.415,250.836,406.628,250.836,368.811z M582.146,368.811c0,37.817-30.787,68.604-68.621,68.604
	s-68.621-30.787-68.621-68.604c0-37.851,30.787-68.621,68.621-68.621S582.146,330.96,582.146,368.811z M315.706,184.24
	c24.94-25.566,58.837-38.543,100.76-38.543c41.889,0,75.769,12.944,100.692,38.459c30.062,30.753,41.788,73.943,46.417,104.562
	c-14.531-9.125-31.665-14.481-50.05-14.481c-42.244,0-78.101,27.848-90.199,66.137h-13.688
	c-5.103-16.137-14.464-30.364-26.731-41.483c34.741-8.06,87.429-27.526,122.575-74.383c4.309-5.728,3.143-13.856-2.586-18.165
	c-5.762-4.309-13.873-3.126-18.165,2.585c-44.744,59.631-126.326,68.604-137.309,69.534c-8.838-2.737-18.232-4.225-27.982-4.225
	c-18.453,0-35.638,5.391-50.22,14.583C273.816,258.353,285.561,215.146,315.706,184.24z M266.28,446.946
	c12.065,8.246,26.157,13.704,41.332,15.597c1.504,3.953,3.312,8.043,5.508,12.25l-46.84-6.691V446.946z M168.884,594.866
	c0-47.651,21.256-47.651,30.348-47.651c26.275,0,47.651,21.376,47.651,47.651c0,26.259-21.376,47.635-47.651,47.635
	C190.14,642.501,168.884,642.501,168.884,594.866z M212.209,667.137c34.403-6.167,60.628-36.144,60.628-72.271
	c0-36.143-26.225-66.12-60.628-72.287v-35.976l190.333,27.188v209.242l-190.333-27.188V667.137z M428.497,723.034V513.792
	l190.334-27.188v35.976c-34.404,6.167-60.629,36.144-60.629,72.287c0,36.127,26.225,66.104,60.629,72.271v28.708L428.497,723.034z
	 M631.808,642.501c-26.275,0-47.65-21.375-47.65-47.635c0-26.275,21.375-47.651,47.65-47.651c9.075,0,30.349,0,30.349,47.651
	C662.156,642.501,640.883,642.501,631.808,642.501z"/>
<g>
	<path fill="#9B9B9B" d="M154.427,928.128c-6.977,0-12.497-1.381-16.56-4.141c-4.065-2.76-6.095-6.479-6.095-11.155
		c0-2.454,0.728-4.829,2.185-7.13c1.456-2.3,3.45-4.37,5.98-6.21v-0.46c-1.38-0.843-2.53-1.992-3.45-3.45
		c-0.92-1.455-1.38-3.257-1.38-5.404c0-2.453,0.69-4.543,2.07-6.268c1.38-1.726,2.683-3.008,3.91-3.853v-0.46
		c-1.765-1.533-3.354-3.603-4.772-6.21c-1.419-2.605-2.127-5.596-2.127-8.97c0-2.836,0.498-5.443,1.495-7.82
		c0.995-2.376,2.375-4.428,4.14-6.152c1.763-1.726,3.833-3.065,6.21-4.025c2.375-0.958,4.905-1.438,7.59-1.438
		c1.533,0,2.913,0.135,4.14,0.402c1.225,0.27,2.26,0.595,3.105,0.978h18.745v4.255h-12.88c1.763,1.535,3.22,3.508,4.37,5.923
		s1.725,5.08,1.725,7.992c0,2.838-0.5,5.444-1.495,7.82c-0.997,2.377-2.357,4.428-4.083,6.152c-1.725,1.726-3.757,3.067-6.095,4.025
		c-2.339,0.959-4.85,1.438-7.532,1.438c-1.535,0-3.125-0.19-4.772-0.575c-1.649-0.383-3.125-0.958-4.428-1.725
		c-1.227,0.997-2.282,2.109-3.163,3.335c-0.882,1.227-1.322,2.76-1.322,4.6c0,1.994,0.728,3.7,2.185,5.117
		c1.456,1.42,4.255,2.128,8.395,2.128h11.845c6.21,0,10.791,1.017,13.743,3.047c2.951,2.031,4.428,5.233,4.428,9.603
		c0,2.376-0.615,4.695-1.84,6.958c-1.227,2.261-2.972,4.255-5.232,5.979c-2.262,1.726-5.002,3.105-8.223,4.141
		C162.018,927.61,158.413,928.128,154.427,928.128z M155.002,923.987c3.065,0,5.865-0.402,8.395-1.207
		c2.53-0.806,4.675-1.86,6.44-3.163c1.763-1.305,3.123-2.779,4.083-4.427c0.958-1.65,1.438-3.355,1.438-5.118
		c0-3.067-1.092-5.232-3.277-6.497c-2.185-1.266-5.348-1.897-9.488-1.897h-11.845c-0.615,0-1.553-0.058-2.817-0.173
		c-1.265-0.115-2.627-0.363-4.083-0.747c-2.53,1.763-4.37,3.641-5.52,5.635c-1.15,1.992-1.725,3.985-1.725,5.979
		c0,3.45,1.59,6.248,4.772,8.396C144.556,922.913,149.098,923.987,155.002,923.987z M153.623,879.942
		c1.916,0,3.737-0.363,5.462-1.093c1.725-0.728,3.238-1.782,4.542-3.162c1.303-1.38,2.338-3.027,3.105-4.945
		c0.766-1.915,1.15-4.024,1.15-6.324c0-2.301-0.384-4.408-1.15-6.325c-0.767-1.916-1.782-3.525-3.047-4.83
		c-1.265-1.303-2.78-2.318-4.542-3.048c-1.765-0.728-3.604-1.093-5.52-1.093c-1.995,0-3.853,0.365-5.578,1.093
		c-1.725,0.729-3.24,1.745-4.542,3.048c-1.305,1.305-2.339,2.895-3.105,4.772c-0.767,1.879-1.15,4.007-1.15,6.383
		c0,2.3,0.383,4.409,1.15,6.324c0.766,1.918,1.82,3.565,3.163,4.945c1.34,1.38,2.875,2.435,4.6,3.162
		C149.885,879.579,151.705,879.942,153.623,879.942z"/>
	<path fill="#9B9B9B" d="M195.022,833.022c-1.305,0-2.397-0.421-3.278-1.265c-0.882-0.843-1.322-1.916-1.322-3.221
		c0-1.455,0.44-2.587,1.322-3.393c0.881-0.805,1.973-1.207,3.278-1.207c1.303,0,2.395,0.402,3.277,1.207
		c0.88,0.806,1.323,1.938,1.323,3.393c0,1.305-0.442,2.378-1.323,3.221C197.417,832.602,196.325,833.022,195.022,833.022z
		 M192.377,901.563v-55.2h5.06v55.2H192.377z"/>
	<path fill="#9B9B9B" d="M233.776,902.942c-2.685,0-4.907-0.402-6.67-1.207c-1.765-0.806-3.182-1.936-4.255-3.393
		c-1.075-1.456-1.822-3.221-2.243-5.29c-0.422-2.07-0.632-4.331-0.632-6.785v-35.535h-8.625v-3.91l8.74-0.46l0.69-15.984h4.37
		v15.984h15.985v4.37h-15.985v35.995c0,1.765,0.133,3.354,0.402,4.772c0.268,1.42,0.748,2.645,1.438,3.68s1.628,1.84,2.818,2.415
		c1.188,0.575,2.74,0.862,4.657,0.862c1.073,0,2.243-0.172,3.507-0.517c1.265-0.346,2.396-0.748,3.393-1.208l1.38,4.14
		c-1.61,0.615-3.22,1.111-4.83,1.495C236.306,902.75,234.926,902.942,233.776,902.942z"/>
	<path fill="#9B9B9B" d="M258.729,902.942c-1.304,0-2.455-0.46-3.45-1.38c-0.998-0.92-1.495-2.185-1.495-3.795
		c0-1.686,0.498-2.99,1.495-3.91c0.995-0.92,2.146-1.38,3.45-1.38c1.303,0,2.433,0.46,3.393,1.38c0.958,0.92,1.438,2.225,1.438,3.91
		c0,1.61-0.48,2.875-1.438,3.795C261.163,902.482,260.032,902.942,258.729,902.942z"/>
	<path fill="#9B9B9B" d="M284.489,833.022c-1.305,0-2.397-0.421-3.278-1.265c-0.882-0.843-1.322-1.916-1.322-3.221
		c0-1.455,0.44-2.587,1.322-3.393c0.881-0.805,1.973-1.207,3.278-1.207c1.303,0,2.395,0.402,3.277,1.207
		c0.88,0.806,1.323,1.938,1.323,3.393c0,1.305-0.442,2.378-1.323,3.221C286.884,832.602,285.792,833.022,284.489,833.022z
		 M281.844,901.563v-55.2h5.06v55.2H281.844z"/>
	<path fill="#9B9B9B" d="M328.303,902.942c-3.297,0-6.44-0.652-9.43-1.955c-2.99-1.303-5.617-3.181-7.877-5.635
		c-2.262-2.453-4.064-5.463-5.405-9.027c-1.342-3.565-2.013-7.647-2.013-12.248c0-4.6,0.67-8.72,2.013-12.362
		c1.34-3.641,3.143-6.688,5.405-9.143c2.261-2.452,4.888-4.33,7.877-5.635c2.99-1.303,6.133-1.955,9.43-1.955
		c3.295,0,6.458,0.652,9.487,1.955c3.028,1.305,5.673,3.183,7.935,5.635c2.261,2.455,4.063,5.502,5.405,9.143
		c1.34,3.643,2.012,7.763,2.012,12.362c0,4.601-0.672,8.683-2.012,12.248c-1.342,3.564-3.145,6.574-5.405,9.027
		c-2.262,2.454-4.907,4.332-7.935,5.635C334.761,902.29,331.598,902.942,328.303,902.942z M328.303,898.457
		c2.76,0,5.348-0.593,7.762-1.782c2.415-1.188,4.485-2.855,6.21-5.002c1.725-2.146,3.085-4.716,4.082-7.705
		c0.996-2.99,1.495-6.286,1.495-9.891c0-3.68-0.5-7.015-1.495-10.005c-0.997-2.99-2.357-5.577-4.082-7.763
		c-1.725-2.185-3.795-3.87-6.21-5.06c-2.415-1.188-5.002-1.782-7.762-1.782c-2.76,0-5.33,0.595-7.705,1.782
		c-2.377,1.189-4.428,2.875-6.152,5.06c-1.725,2.186-3.087,4.772-4.083,7.763c-0.998,2.99-1.495,6.325-1.495,10.005
		c0,3.604,0.498,6.9,1.495,9.891c0.995,2.989,2.357,5.56,4.083,7.705c1.725,2.146,3.775,3.814,6.152,5.002
		C322.973,897.864,325.542,898.457,328.303,898.457z"/>
	<path fill="#9B9B9B" d="M360.156,919.963l35.075-100.051h4.37l-35.075,100.051H360.156z"/>
	<path fill="#9B9B9B" d="M427.775,902.942c-3.604,0-6.842-0.689-9.717-2.07c-2.875-1.38-5.33-3.372-7.359-5.979
		c-2.033-2.605-3.605-5.768-4.715-9.487c-1.113-3.718-1.668-7.915-1.668-12.593c0-4.676,0.67-8.893,2.012-12.65
		c1.342-3.755,3.105-6.918,5.291-9.487c2.186-2.567,4.695-4.542,7.531-5.922c2.836-1.381,5.711-2.07,8.625-2.07
		c3.145,0,5.711,0.518,7.705,1.553c1.994,1.034,3.871,2.435,5.637,4.197l-0.691-8.28v-18.63h19.781v80.04h-16.102l-1.379-5.29
		h-0.461c-1.994,1.994-4.273,3.604-6.842,4.83C432.854,902.328,430.307,902.942,427.775,902.942z M433.066,886.843
		c1.533,0,2.875-0.288,4.025-0.862c1.15-0.575,2.26-1.668,3.334-3.278v-21.159c-1.15-1.073-2.414-1.801-3.795-2.186
		c-1.379-0.383-2.723-0.575-4.025-0.575c-2.068,0-3.93,1.035-5.576,3.105c-1.65,2.069-2.473,5.635-2.473,10.694
		c0,5.215,0.748,8.895,2.242,11.04C428.293,885.77,430.381,886.843,433.066,886.843z"/>
	<path fill="#9B9B9B" d="M499.074,902.942c-3.68,0-7.244-0.672-10.695-2.013c-3.449-1.34-6.496-3.295-9.143-5.864
		c-2.645-2.568-4.754-5.73-6.324-9.488c-1.572-3.755-2.357-8.01-2.357-12.765c0-4.753,0.785-9.008,2.357-12.765
		c1.57-3.756,3.68-6.918,6.324-9.488c2.646-2.567,5.693-4.522,9.143-5.864c3.451-1.341,7.016-2.013,10.695-2.013
		s7.225,0.672,10.639,2.013c3.41,1.342,6.439,3.297,9.084,5.864c2.645,2.57,4.773,5.732,6.383,9.488
		c1.609,3.757,2.414,8.012,2.414,12.765c0,4.755-0.805,9.01-2.414,12.765c-1.609,3.758-3.738,6.92-6.383,9.488
		c-2.645,2.569-5.674,4.524-9.084,5.864C506.299,902.271,502.754,902.942,499.074,902.942z M499.074,887.072
		c2.99,0,5.117-1.283,6.383-3.853c1.266-2.567,1.898-6.037,1.898-10.407s-0.633-7.838-1.898-10.407
		c-1.266-2.568-3.393-3.853-6.383-3.853s-5.117,1.284-6.383,3.853c-1.264,2.569-1.896,6.037-1.896,10.407s0.633,7.84,1.896,10.407
		C493.957,885.789,496.084,887.072,499.074,887.072z"/>
	<path fill="#9B9B9B" d="M529.434,901.563l17.25-29.9l-16.33-27.6h21.16l4.141,8.05c0.766,1.61,1.531,3.26,2.299,4.945
		c0.766,1.688,1.533,3.335,2.301,4.945h0.459c0.537-1.61,1.111-3.258,1.727-4.945c0.611-1.686,1.188-3.335,1.725-4.945l2.76-8.05
		h20.471l-16.33,29.9l17.25,27.6h-21.16l-4.6-8.05c-0.846-1.61-1.688-3.258-2.531-4.945c-0.844-1.686-1.688-3.335-2.529-4.945
		h-0.461c-0.613,1.61-1.264,3.24-1.955,4.888c-0.689,1.649-1.342,3.317-1.955,5.003l-3.219,8.05H529.434z"/>
	<path fill="#9B9B9B" d="M606.482,836.933c-3.219,0-5.863-0.92-7.934-2.76c-2.07-1.841-3.105-4.216-3.105-7.13
		c0-2.913,1.035-5.29,3.105-7.131c2.07-1.84,4.715-2.76,7.934-2.76c3.221,0,5.865,0.92,7.936,2.76
		c2.07,1.841,3.105,4.218,3.105,7.131c0,2.914-1.035,5.289-3.105,7.13C612.348,836.013,609.703,836.933,606.482,836.933z
		 M596.594,901.563v-57.5h19.779v57.5H596.594z"/>
	<path fill="#9B9B9B" d="M656.393,902.942c-4.217,0-8.127-0.672-11.73-2.013c-3.604-1.34-6.727-3.295-9.373-5.864
		c-2.645-2.568-4.734-5.73-6.266-9.488c-1.535-3.755-2.301-8.01-2.301-12.765c0-4.676,0.785-8.873,2.357-12.593
		c1.57-3.718,3.641-6.88,6.209-9.487c2.568-2.605,5.502-4.6,8.799-5.979c3.295-1.381,6.707-2.07,10.234-2.07
		c4.215,0,7.896,0.729,11.041,2.185c3.143,1.458,5.75,3.45,7.818,5.98c2.07,2.53,3.623,5.482,4.658,8.854
		c1.035,3.375,1.553,6.978,1.553,10.811c0,1.765-0.098,3.412-0.287,4.944c-0.193,1.535-0.365,2.646-0.518,3.336h-32.775
		c0.92,3.449,2.568,5.847,4.945,7.188c2.375,1.342,5.174,2.012,8.395,2.012c1.992,0,3.928-0.287,5.809-0.862
		c1.877-0.575,3.852-1.438,5.922-2.587l6.439,11.729c-3.145,2.225-6.611,3.892-10.408,5.003
		C663.119,902.386,659.613,902.942,656.393,902.942z M645.582,865.912h17.02c0-2.223-0.557-4.157-1.666-5.807
		c-1.113-1.648-3.162-2.473-6.152-2.473c-2.225,0-4.16,0.652-5.809,1.955C647.326,860.892,646.195,863,645.582,865.912z"/>
</g>
<linearGradient id="SVGID_1_" gradientUnits="userSpaceOnUse" x1="452.2666" y1="755.3516" x2="274.5306" y2="135.5124">
	<stop  offset="0" style="stop-color:#E94850"/>
	<stop  offset="1" style="stop-color:#FF43D1"/>
</linearGradient>
<path fill="url(#SVGID_1_)" d="M675.11,581.866c0-52.061-23.318-68.113-43.325-72.305v-50.929c0-3.769-1.639-7.334-4.478-9.801
	c-2.822-2.45-6.506-3.531-10.341-3.042l-37.361,5.339v-43.612c9.767-14.869,15.495-32.629,15.495-51.707
	c0-19.179-5.779-37.005-15.613-51.942c-0.913-25.955-7.841-100.676-56.641-150.726c-30.026-30.787-70.175-46.4-119.381-46.4
	c-49.171,0-89.32,15.613-119.33,46.366c-49.003,50.253-55.83,125.346-56.691,150.861c-9.818,14.904-15.562,32.696-15.562,51.841
	c0,19.061,5.71,36.769,15.444,51.639v43.95l-39.27-5.61c-3.717-0.489-7.485,0.575-10.325,3.042
	c-2.855,2.467-4.478,6.032-4.478,9.801v50.929c-20.007,4.191-43.325,20.244-43.325,72.305c0,52.045,23.318,68.098,43.325,72.288
	V694.1c0,6.456,4.748,11.93,11.152,12.842l216.289,30.906c0.608,0.085,1.216,0.135,1.824,0.135s1.217-0.05,1.824-0.135
	l216.306-30.906c6.388-0.912,11.136-6.386,11.136-12.842v-39.945C651.792,649.964,675.11,633.911,675.11,581.866z M506.98,461.505
	c2.112-4.106,3.903-8.094,5.373-11.947c15.157-1.909,29.232-7.35,41.298-15.579v20.852L506.98,461.505z M402.52,476.425
	l-68.012-9.716c-5.07-6.1-8.972-12.301-11.744-17.844c44.39-7.756,78.27-46.485,78.27-93.055c0-0.844-0.103-1.655-0.136-2.484h5.171
	c-0.017,0.829-0.118,1.64-0.118,2.484c0,46.587,33.913,85.316,78.319,93.055c-2.72,5.441-6.421,11.507-11.32,17.506L402.52,476.425z
	 M237.836,355.811c0-37.851,30.788-68.621,68.605-68.621c37.85,0,68.637,30.77,68.637,68.621c0,37.817-30.788,68.604-68.637,68.604
	C268.624,424.415,237.836,393.628,237.836,355.811z M569.146,355.811c0,37.817-30.787,68.604-68.621,68.604
	s-68.621-30.787-68.621-68.604c0-37.851,30.787-68.621,68.621-68.621S569.146,317.96,569.146,355.811z M302.706,171.24
	c24.94-25.566,58.837-38.543,100.76-38.543c41.889,0,75.769,12.944,100.692,38.459c30.062,30.753,41.788,73.943,46.417,104.562
	c-14.531-9.125-31.665-14.481-50.05-14.481c-42.244,0-78.101,27.848-90.199,66.137h-13.688
	c-5.103-16.137-14.464-30.364-26.731-41.483c34.741-8.06,87.429-27.526,122.575-74.383c4.309-5.728,3.143-13.856-2.586-18.165
	c-5.762-4.309-13.873-3.126-18.165,2.585c-44.744,59.631-126.326,68.604-137.309,69.534c-8.838-2.737-18.232-4.225-27.982-4.225
	c-18.453,0-35.638,5.391-50.22,14.583C260.816,245.353,272.561,202.146,302.706,171.24z M253.28,433.946
	c12.065,8.246,26.157,13.704,41.332,15.597c1.504,3.953,3.312,8.043,5.508,12.25l-46.84-6.691V433.946z M155.884,581.866
	c0-47.651,21.256-47.651,30.348-47.651c26.275,0,47.651,21.376,47.651,47.651c0,26.259-21.376,47.635-47.651,47.635
	C177.14,629.501,155.884,629.501,155.884,581.866z M199.209,654.137c34.403-6.167,60.628-36.144,60.628-72.271
	c0-36.143-26.225-66.12-60.628-72.287v-35.976l190.333,27.188v209.242l-190.333-27.188V654.137z M415.497,710.034V500.792
	l190.334-27.188v35.976c-34.404,6.167-60.629,36.144-60.629,72.287c0,36.127,26.225,66.104,60.629,72.271v28.708L415.497,710.034z
	 M618.808,629.501c-26.275,0-47.65-21.375-47.65-47.635c0-26.275,21.375-47.651,47.65-47.651c9.075,0,30.349,0,30.349,47.651
	C649.156,629.501,627.883,629.501,618.808,629.501z"/>
</svg>
